<?xml version="1.0" encoding="utf-8"?>
<!-- Generator: Adobe Illustrator 19.2.1, SVG Export Plug-In . SVG Version: 6.00 Build 0)  -->
<svg version="1.1" id="Layer_1" xmlns="http://www.w3.org/2000/svg" xmlns:xlink="http://www.w3.org/1999/xlink" x="0px" y="0px"
	 viewBox="0 0 2048 515" style="enable-background:new 0 0 2048 515;" xml:space="preserve">
<style type="text/css">
	.st0{clip-path:url(#SVGID_2_);}
	.st1{enable-background:new    ;}
	.st2{clip-path:url(#SVGID_4_);}
	.st3{clip-path:url(#SVGID_6_);}
	.st4{clip-path:url(#SVGID_8_);}
	.st5{clip-path:url(#SVGID_10_);}
	.st6{clip-path:url(#SVGID_12_);}
</style>
<g>
	<g>
		<g>
			<defs>
				<rect id="SVGID_1_" x="3" width="2059.4" height="515"/>
			</defs>
			<clipPath id="SVGID_2_">
				<use xlink:href="#SVGID_1_"  style="overflow:visible;"/>
			</clipPath>
			<g class="st0">
				<g class="st1">
					<path d="M584.5,307.5V49.2h132.6c45.7,0,75.5,27.7,75.5,73.7c0,45.7-29.8,74.8-75.5,74.8h-45.7c-16.6,0-33.6,2.1-49.2,10.4
						v99.4H584.5z M717.1,159.6c24.6,0,38.1-11.8,38.1-36.7c0-26-13.2-36-38.1-36h-94.9V170c15.6-9,32.2-10.4,49.2-10.4L717.1,159.6
						L717.1,159.6z"/>
					<path d="M949.1,87.3v220.2h-36.7V87.3h-92.1V49.2h219.9v38.1H949.1z"/>
					<path d="M1088.6,307.5V49.2h37v258.3L1088.6,307.5L1088.6,307.5z"/>
					<path d="M1334.1,235.5l-87.6-105.6v177.6h-37v-222l-30.1-36.4h48.8l105.6,126.7l107-126.7h48.8l-30.1,36.4v221.9h-37V129.9
						L1334.1,235.5z"/>
					<path d="M1539.7,207.1V49.2h37.4v157.9c0,44.3,28.4,68.6,78.6,68.6s78.6-24.2,78.6-68.6V49.2h37.4v157.9
						c0,67.2-42.9,106.3-116,106.3S1539.7,274.2,1539.7,207.1z"/>
					<path d="M1929.9,313.4c-39.5,0-80.3-19.4-106.3-53l27-25.3c13.5,16.3,38.8,40.5,79.3,40.5c38.1,0,76.5-14.5,76.5-46.7
						c0-39.5-39.1-39.5-76.5-39.5c-61.6,0-95.2-22.9-95.2-66.8c0-41.9,39.8-81,95.2-81c39.1,0,73.1,11.1,103.9,40.9l-23.5,27.7
						c-27.7-22.5-47.4-30.5-80.3-30.5c-29.1,0-53.3,20.1-53.3,42.6c0,15.6,11.1,29.8,55,29.8c90.4,0,113.6,28,113.6,76.9
						C2045.2,280.8,1995.3,313.4,1929.9,313.4z"/>
				</g>
			</g>
		</g>
	</g>
	<g>
		<g>
			<defs>
				<rect id="SVGID_3_" x="3" width="2059.4" height="515"/>
			</defs>
			<clipPath id="SVGID_4_">
				<use xlink:href="#SVGID_3_"  style="overflow:visible;"/>
			</clipPath>
			<g class="st2">
				<g class="st1">
					<path d="M1646.3,438.9c-1.8,0.2-3.7,0.2-5.6,0.2h-29.3v37.2h-20.8V352.7h50.1c31.6,0,49.8,15.4,49.8,42.2
						c0,19.8-9.2,33.7-25.6,40.1l27.7,41.3h-23.7L1646.3,438.9z M1640.6,420.3c19.1,0,30-8.1,30-24.9c0-16.2-10.9-24-30-24h-29.3
						v48.9H1640.6z"/>
					<path d="M1718.1,476.3V352.7h20.8v123.5h-20.8V476.3z"/>
					<path d="M1822.1,352.7c37.1,0,63.9,25.9,63.9,61.8c0,35.7-27,61.8-64.4,61.8h-50.1V352.7H1822.1z M1792.2,457.6h30.4
						c24,0,42.4-17.8,42.4-42.9c0-25.2-18.9-43.2-43.2-43.2h-29.5v86.1H1792.2z"/>
					<path d="M1929,371.4v33.4h60.4v18.7H1929v34.1h69.5v18.7h-90.4V352.7h88.2v18.7H1929z"/>
				</g>
			</g>
		</g>
	</g>
	<g>
		<g>
			<defs>
				<rect id="SVGID_5_" x="3" width="2059.4" height="515"/>
			</defs>
			<clipPath id="SVGID_6_">
				<use xlink:href="#SVGID_5_"  style="overflow:visible;"/>
			</clipPath>
			<path class="st3" d="M289.6,84.8c2.6-2.3,3.8-3.4,6.4-5.6c20.5,2.8,40,8.9,58,18.3c20,10.4,37.4,23.5,52.1,39.4
				c14.8,15.9,26.4,34.3,34.9,55s12.6,42.4,12.6,65.5c0,23.5-4.2,45.5-12.6,66.1c-8.5,20.7-20.1,38.9-34.9,55
				c-14.8,15.9-32.2,29.1-52.1,39.4c-18.1,9.4-37.5,15.5-58,18.3c-2.6-2.3-3.8-3.4-6.4-5.6v-30.4c1.8-2.1,2.9-3.5,4.6-5.5
				c15.6-2.6,30.1-7.7,43.6-15.1c14.8-8.2,27.7-18.4,38.7-30.6c11.1-12.2,19.8-26.1,26.1-41.5c6.3-15.5,9.5-32.2,9.5-50
				c0-17.4-3.2-33.7-9.5-49.3c-6.3-15.5-15-29.3-26.1-41.5s-23.9-22.5-38.7-30.6c-13.4-7.4-28-12.5-43.6-15.1
				c-1.8-2.1-2.9-3.5-4.6-5.5V84.8z"/>
		</g>
	</g>
	<g>
		<g>
			<defs>
				<rect id="SVGID_7_" x="3" width="2059.4" height="515"/>
			</defs>
			<clipPath id="SVGID_8_">
				<use xlink:href="#SVGID_7_"  style="overflow:visible;"/>
			</clipPath>
			<path class="st4" d="M248.1,430.4c-2.6,2.3-3.8,3.4-6.4,5.6c-20.5-2.8-40-8.9-58-18.3c-20-10.3-37.4-23.5-52.1-39.4
				c-14.8-15.9-26.4-34.2-34.9-55c-8.5-20.6-12.7-42.6-12.7-66c0-23,4.2-44.8,12.6-65.5s20.1-38.9,34.9-55
				c14.8-15.9,32.2-29.1,52.1-39.4c18.1-9.4,37.5-15.5,58-18.3c2.6,2.3,3.8,3.4,6.4,5.6v30.4c-1.8,2.1-2.9,3.5-4.6,5.5
				c-15.6,2.6-30.3,7.7-43.9,15.1c-15,8.2-27.9,18.4-38.7,30.6c-10.8,12.2-19.4,26.1-25.7,41.5c-6.3,15.5-9.5,31.9-9.5,49.3
				c0,17.8,3.2,34.5,9.5,50s14.9,29.3,25.7,41.5s23.7,22.5,38.7,30.6c13.7,7.4,28.3,12.5,43.9,15.1c1.8,2.1,2.9,3.5,4.6,5.5
				L248.1,430.4L248.1,430.4z"/>
		</g>
	</g>
	<g>
		<g>
			<defs>
				<rect id="SVGID_9_" x="3" width="2059.4" height="515"/>
			</defs>
			<clipPath id="SVGID_10_">
				<use xlink:href="#SVGID_9_"  style="overflow:visible;"/>
			</clipPath>
			<path class="st5" d="M248.1,509.4c-2.5,2.3-3.7,3.4-6.2,5.6c-31.9-3.3-61.9-11.6-89.8-25.2c-29.9-14.2-55.8-33-77.8-56.2
				c-22.1-23.3-39.4-49.9-52.1-79.9S3,291.6,3,257.3c0-33.7,6.3-65.8,19-96.1s30-56.9,52.1-79.9c22-23,48-41.8,77.8-56.3
				c28-13.7,58-21.9,90-24.8c2.5,2.3,3.7,3.4,6.2,5.6v30.3c-1.9,2.1-3,3.5-5,5.6c-26.8,2.8-51.7,10-74.9,21.7
				c-24.6,12.4-46.2,28.3-64.5,47.5c-18.3,19.3-32.7,41.4-43.3,66.5s-15.8,51.7-15.8,79.9s5.3,55,15.8,80.3
				c10.6,25.4,24.9,47.6,43.3,66.9c18.3,19.3,39.7,35.1,64.5,47.5c23.3,11.7,48.2,19,74.9,21.7c1.9,2.1,3,3.5,5,5.6L248.1,509.4
				L248.1,509.4z"/>
		</g>
	</g>
	<g>
		<g>
			<defs>
				<rect id="SVGID_11_" x="3" width="2059.4" height="515"/>
			</defs>
			<clipPath id="SVGID_12_">
				<use xlink:href="#SVGID_11_"  style="overflow:visible;"/>
			</clipPath>
			<path class="st6" d="M289.6,5.7c2.5-2.3,3.7-3.4,6.2-5.6c31.9,2.9,62,11.2,90,24.8c29.8,14.6,55.8,33.3,77.8,56.3
				c22,23,39.4,49.7,52.1,79.9c12.6,30.3,19,62.3,19,96.1c0,34.3-6.3,66.4-19,96.5c-12.6,30-30,56.7-52.1,79.9
				c-22.1,23.3-48,42-77.8,56.3c-28,13.4-57.9,21.8-89.8,25.2c-2.5-2.3-3.7-3.4-6.2-5.6v-30.3c1.9-2.1,3-3.5,5-5.6
				c26.3-2.8,51.1-10,74.6-21.7c24.8-12.4,46.5-28.2,64.8-47.5c18.3-19.2,32.7-41.5,43.3-66.9c10.6-25.4,15.8-52.1,15.8-80.3
				s-5.3-54.7-15.8-79.9c-10.6-25.1-24.9-47.3-43.3-66.5c-18.3-19.2-39.8-35.1-64.8-47.5c-23.4-11.7-48.3-19-74.6-21.7
				c-1.9-2.1-3-3.5-5-5.6V5.7L289.6,5.7L289.6,5.7z"/>
		</g>
	</g>
</g>
</svg>
